<svg xmlns="http://www.w3.org/2000/svg" fill="none" viewBox="0 0 41 40"><path fill="#f47677" fill-rule="evenodd" d="M20.075 1.917C10.05 1.917 1.92 10.01 1.92 20c0 9.989 8.13 18.083 18.154 18.083C30.1 38.083 38.23 29.989 38.23 20c0-9.986-8.13-18.083-18.154-18.083ZM.08 20C.08 8.998 9.033.083 20.075.083 31.116.083 40.069 9.001 40.069 20c0 11.002-8.953 19.917-19.995 19.917C9.035 39.917.08 31.002.08 20Z" clip-rule="evenodd"/><path fill="#f47677" fill-rule="evenodd" d="m27.968 15.255-5.044-.21 3.428-3.696-1.38-1.372-3.716 3.404-.202-5.025h-1.948l-.21 5.025-3.71-3.415-1.378 1.376 3.42 3.7-5.047.198v1.943l5.044.21-3.428 3.696 1.381 1.372 3.656-3.352.162 8.141-2.92.213v1.808l2.964.223.055 2.828h1.948l.059-2.824 2.993-.227v-1.808l-2.95-.213.167-8.137 3.652 3.355 1.377-1.372-3.417-3.7 5.044-.201v-1.94Z" clip-rule="evenodd"/></svg>
