<svg xmlns="http://www.w3.org/2000/svg" fill="none" viewBox="0 0 40 40"><path fill="url(#a)" d="M0 17c0-6.547 0-9.82 1.474-12.225a10 10 0 0 1 3.301-3.301C7.18 0 10.453 0 17 0h6c6.547 0 9.82 0 12.225 1.474a10 10 0 0 1 3.301 3.301C40 7.18 40 10.453 40 17v6c0 6.547 0 9.82-1.474 12.225a9.999 9.999 0 0 1-3.301 3.301C32.82 40 29.547 40 23 40h-6c-6.547 0-9.82 0-12.225-1.474a9.999 9.999 0 0 1-3.301-3.301C0 32.82 0 29.547 0 23v-6Z"/><path fill="url(#b)" d="M0 17c0-6.547 0-9.82 1.474-12.225a10 10 0 0 1 3.301-3.301C7.18 0 10.453 0 17 0h6c6.547 0 9.82 0 12.225 1.474a10 10 0 0 1 3.301 3.301C40 7.18 40 10.453 40 17v6c0 6.547 0 9.82-1.474 12.225a9.999 9.999 0 0 1-3.301 3.301C32.82 40 29.547 40 23 40h-6c-6.547 0-9.82 0-12.225-1.474a9.999 9.999 0 0 1-3.301-3.301C0 32.82 0 29.547 0 23v-6Z"/><path fill="url(#c)" d="M0 17c0-6.547 0-9.82 1.474-12.225a10 10 0 0 1 3.301-3.301C7.18 0 10.453 0 17 0h6c6.547 0 9.82 0 12.225 1.474a10 10 0 0 1 3.301 3.301C40 7.18 40 10.453 40 17v6c0 6.547 0 9.82-1.474 12.225a9.999 9.999 0 0 1-3.301 3.301C32.82 40 29.547 40 23 40h-6c-6.547 0-9.82 0-12.225-1.474a9.999 9.999 0 0 1-3.301-3.301C0 32.82 0 29.547 0 23v-6Z"/><path fill="url(#d)" d="M0 17c0-6.547 0-9.82 1.474-12.225a10 10 0 0 1 3.301-3.301C7.18 0 10.453 0 17 0h6c6.547 0 9.82 0 12.225 1.474a10 10 0 0 1 3.301 3.301C40 7.18 40 10.453 40 17v6c0 6.547 0 9.82-1.474 12.225a9.999 9.999 0 0 1-3.301 3.301C32.82 40 29.547 40 23 40h-6c-6.547 0-9.82 0-12.225-1.474a9.999 9.999 0 0 1-3.301-3.301C0 32.82 0 29.547 0 23v-6Z"/><path fill="#fff" d="M15.265 31v-9.744L24.733 31H30v-.253L19.11 19.654 29.16 9.126V9h-5.3l-8.595 9.302V9H11v22h4.265Z"/><defs><radialGradient id="b" cx="0" cy="0" r="1" gradientTransform="rotate(-45.156 47.232 16.945) scale(64.1474 65.107)" gradientUnits="userSpaceOnUse"><stop stop-color="#232DE3"/><stop offset="1" stop-color="#232DE3" stop-opacity="0"/></radialGradient><radialGradient id="c" cx="0" cy="0" r="1" gradientTransform="rotate(-138.45 26.467 12.707) scale(40.1083 61.1539)" gradientUnits="userSpaceOnUse"><stop stop-color="#8B4DFF"/><stop offset="1" stop-color="#8B4DFF" stop-opacity="0"/></radialGradient><radialGradient id="d" cx="0" cy="0" r="1" gradientTransform="matrix(0 31.5366 -76.5164 0 19.667 .297)" gradientUnits="userSpaceOnUse"><stop stop-color="#24D5FF"/><stop offset="1" stop-color="#1BB8FF" stop-opacity="0"/></radialGradient><linearGradient id="a" x1="20" x2="20" y1="0" y2="40" gradientUnits="userSpaceOnUse"><stop stop-color="#1FD1FF"/><stop offset="1" stop-color="#1BB8FF"/></linearGradient></defs></svg>