<?xml version="1.0" standalone="no"?>
<!DOCTYPE svg PUBLIC "-//W3C//DTD SVG 20010904//EN"
 "http://www.w3.org/TR/2001/REC-SVG-20010904/DTD/svg10.dtd">
<svg version="1.0" xmlns="http://www.w3.org/2000/svg"
 width="700.000000pt" height="700.000000pt" viewBox="0 0 700.000000 700.000000"
 preserveAspectRatio="xMidYMid meet">
<metadata>
Created by potrace 1.14, written by Peter Selinger 2001-2017
</metadata>
<g transform="translate(0.000000,700.000000) scale(0.100000,-0.100000)"
fill="#000000" stroke="none">
<path d="M3347 6984 c-1 -1 -45 -5 -97 -8 -102 -6 -146 -11 -252 -27 -37 -6
-78 -12 -90 -14 -198 -27 -584 -140 -773 -225 -162 -73 -211 -98 -323 -160
-154 -86 -201 -115 -324 -203 -626 -445 -1087 -1077 -1311 -1797 -25 -80 -49
-158 -53 -175 -4 -16 -8 -32 -9 -35 -15 -52 -62 -301 -70 -375 -4 -27 -8 -60
-10 -73 -24 -147 -24 -629 0 -786 2 -12 6 -43 10 -71 8 -64 16 -112 21 -139 2
-11 7 -37 10 -56 4 -19 8 -42 9 -50 58 -306 215 -721 385 -1015 96 -166 254
-395 349 -505 96 -111 138 -155 217 -234 87 -88 181 -173 254 -232 19 -16 37
-31 40 -34 15 -17 171 -127 270 -193 298 -195 648 -351 985 -441 55 -15 109
-28 120 -30 11 -2 38 -9 60 -14 41 -11 192 -36 280 -48 27 -3 61 -8 75 -10 54
-8 271 -18 385 -18 118 0 354 12 364 19 4 1 37 6 75 9 37 3 71 8 75 10 3 2 30
7 60 10 29 4 56 8 60 10 4 3 27 7 51 11 58 8 281 66 385 100 885 290 1637 942
2042 1771 62 126 113 240 113 250 0 3 7 20 15 37 34 75 123 369 151 498 58
272 79 481 78 774 0 169 -8 320 -19 387 -2 13 -7 46 -10 73 -51 458 -251 994
-533 1430 -39 61 -207 292 -222 305 -3 3 -32 37 -65 75 -232 272 -592 566
-920 752 -372 211 -849 371 -1245 418 -25 3 -61 7 -80 10 -108 13 -523 28
-533 19z m388 -329 c66 -4 122 -8 125 -10 3 -2 30 -6 60 -10 47 -6 172 -28
285 -50 17 -3 80 -20 140 -37 773 -216 1427 -712 1851 -1403 83 -136 209 -393
263 -540 73 -199 143 -474 166 -660 4 -27 9 -61 11 -75 24 -147 23 -608 -1
-750 -2 -14 -6 -43 -10 -65 -38 -261 -123 -575 -207 -765 -100 -224 -167 -352
-263 -501 -311 -481 -742 -867 -1253 -1123 -270 -135 -638 -253 -907 -291 -22
-3 -53 -8 -70 -10 -97 -16 -299 -29 -435 -28 -106 0 -308 10 -345 17 -11 2
-42 7 -70 10 -27 4 -61 8 -75 11 -14 3 -41 7 -60 10 -56 10 -222 46 -255 56
-16 5 -68 20 -115 34 -142 43 -204 66 -384 146 -242 107 -548 302 -751 478
-98 85 -347 346 -421 441 -180 232 -324 475 -424 715 -23 55 -45 109 -50 120
-48 111 -136 433 -155 565 -4 24 -8 47 -10 50 -2 3 -6 32 -10 65 -4 33 -8 74
-11 90 -18 133 -23 410 -10 585 7 104 9 118 21 215 12 82 45 251 65 325 7 25
14 55 16 66 2 12 21 75 43 140 308 951 1058 1709 2003 2025 114 38 276 82 346
94 18 3 63 12 100 19 37 8 92 17 123 20 31 4 67 9 80 11 12 3 75 7 138 11 64
4 117 7 118 8 5 4 230 -2 338 -9z"/>
<path d="M3333 5531 c-4 -3 -8 -26 -9 -51 -1 -50 -12 -317 -19 -485 -13 -281
-15 -329 -18 -331 -1 -1 -36 30 -78 69 -42 40 -120 113 -174 162 -54 50 -108
99 -120 110 -110 106 -264 245 -270 245 -12 0 -237 -230 -233 -239 2 -5 30
-38 63 -73 66 -70 241 -260 266 -289 8 -10 65 -70 125 -135 100 -106 130 -143
122 -145 -6 -1 -360 -17 -583 -25 -161 -6 -234 -10 -272 -13 -10 -1 -13 -43
-12 -171 l0 -170 72 -1 c81 -1 155 -4 337 -13 123 -5 433 -18 458 -19 12 0 1
-14 -78 -97 -14 -15 -65 -71 -115 -125 -49 -54 -101 -110 -115 -125 -14 -15
-68 -74 -120 -130 -52 -57 -107 -116 -122 -132 -16 -16 -28 -32 -28 -37 0 -10
222 -232 233 -232 5 0 30 18 55 42 59 52 234 213 279 255 34 33 187 173 258
237 21 20 40 35 42 33 3 -2 9 -263 18 -776 4 -179 8 -395 10 -481 l4 -157 -92
-7 c-51 -4 -108 -8 -127 -10 -43 -4 -237 -17 -268 -18 l-22 -1 2 -160 3 -160
25 -2 c14 -1 75 -4 135 -8 61 -4 124 -9 140 -11 17 -2 68 -7 114 -10 46 -3 87
-7 90 -10 4 -2 8 -75 10 -162 6 -337 5 -323 21 -327 8 -2 85 -4 171 -3 l155 1
3 190 c5 282 6 294 11 300 3 3 44 8 90 11 262 19 398 30 420 34 7 1 8 311 1
312 -3 0 -19 2 -34 4 -42 6 -129 13 -242 20 -55 4 -116 8 -135 10 -19 2 -49 3
-66 4 l-32 1 3 133 c2 72 6 274 9 447 11 564 17 835 20 837 2 3 30 -22 126
-110 25 -23 103 -96 175 -162 71 -66 137 -127 146 -135 8 -8 40 -37 70 -64 30
-27 68 -63 85 -79 l32 -29 119 120 120 120 -39 44 c-87 95 -143 156 -197 213
-31 33 -101 109 -156 169 -55 61 -121 133 -147 160 -26 28 -48 54 -48 57 0 4
35 7 78 8 42 1 111 4 152 6 41 2 165 7 275 11 110 4 218 8 240 10 22 1 59 2
83 3 l42 1 0 170 0 170 -27 1 c-91 4 -172 7 -283 13 -134 6 -411 18 -498 20
-28 1 -52 5 -53 9 0 5 16 27 36 50 43 48 222 242 306 332 31 33 97 105 147
160 l91 100 -117 117 c-64 65 -119 118 -122 118 -3 0 -28 -21 -55 -46 -28 -25
-88 -81 -135 -124 -47 -42 -101 -93 -121 -111 -20 -19 -80 -74 -135 -124 -54
-49 -121 -111 -148 -137 -27 -26 -51 -46 -52 -45 -1 1 -5 72 -8 157 -8 192
-17 393 -21 485 -2 39 -4 106 -4 151 l-1 81 -164 0 c-91 0 -168 -3 -173 -6z"/>
</g>
</svg>
