<svg xmlns="http://www.w3.org/2000/svg" fill="none" viewBox="0 0 24 24"><path fill="currentColor" fill-rule="evenodd" d="M3 16a8.395 8.395 0 0 1 1.34-3.9 8.392 8.392 0 0 1 3.078-2.831L5.905 6.735a.416.416 0 0 1-.062-.376.481.481 0 0 1 .266-.297.443.443 0 0 1 .368-.04c.137.04.246.119.328.238l1.513 2.534A9.713 9.713 0 0 1 12 8.08c1.282 0 2.51.238 3.682.713l1.513-2.534a.585.585 0 0 1 .328-.238.444.444 0 0 1 .368.04.481.481 0 0 1 .266.297c.04.132.02.257-.061.376l-1.514 2.534A8.398 8.398 0 0 1 19.66 12.1 8.4 8.4 0 0 1 21 16v1.5H3V16Zm5.636-2.465c-.198.191-.44.287-.727.287-.286 0-.528-.095-.726-.287a.939.939 0 0 1-.297-.703c0-.277.1-.51.297-.702.198-.192.44-.287.726-.287s.529.095.727.287a.94.94 0 0 1 .296.702.94.94 0 0 1-.296.703Zm8.181 0c-.198.191-.44.287-.726.287-.287 0-.529-.095-.726-.287a.939.939 0 0 1-.297-.703c0-.277.1-.51.297-.702.197-.192.44-.287.726-.287s.528.095.726.287a.94.94 0 0 1 .296.702.94.94 0 0 1-.296.703Z" clip-rule="evenodd"/></svg>
