<svg xmlns="http://www.w3.org/2000/svg" fill="none" viewBox="0 0 32 32"><path fill="currentColor" d="M25.534 5.29H5.604a2.466 2.466 0 0 0-2.462 2.464v15.612a2.465 2.465 0 0 0 2.463 2.463h19.49a.428.428 0 0 0 0-.855H5.605a1.608 1.608 0 0 1-1.608-1.608V10.892h23.145v12.474a1.605 1.605 0 0 1-1.605 1.605H24.41a.428.428 0 0 0 0 .855h1.127A2.465 2.465 0 0 0 28 23.363V7.753a2.465 2.465 0 0 0-2.463-2.462h-.003ZM6.951 8.523H6.28a.428.428 0 0 1 0-.856h.672a.428.428 0 0 1 0 .856Zm2.483 0h-.672a.428.428 0 0 1 0-.856h.672a.428.428 0 0 1 0 .856Zm2.477 0h-.672a.428.428 0 0 1 0-.856h.671a.428.428 0 0 1 0 .856Z"/></svg>
