<svg xmlns="http://www.w3.org/2000/svg" fill="none" viewBox="0 0 24 24"><path fill="currentColor" d="M12 4.8a7.173 7.173 0 0 0-4.797 1.83l1.696 4.073a3.36 3.36 0 0 1 3.1-2.063h6.37A7.198 7.198 0 0 0 12 4.8Z"/><path fill="currentColor" d="M4.956 10.507a7.203 7.203 0 0 1 1.519-3.125l2.201 5.282a.48.48 0 0 0 .047.089 3.361 3.361 0 0 0 3.725 2.577l-2.7 3.512a7.203 7.203 0 0 1-4.792-8.335Z"/><path fill="currentColor" d="M10.766 19.094a7.201 7.201 0 0 0 8.023-9.499.483.483 0 0 1-.07.005h-4.367A3.349 3.349 0 0 1 15.36 12a3.348 3.348 0 0 1-.916 2.309l-3.678 4.785Z"/><path fill="currentColor" d="M10.303 10.303a2.4 2.4 0 1 0 3.395 3.394 2.4 2.4 0 0 0-3.395-3.394Z"/></svg>
