<svg xmlns="http://www.w3.org/2000/svg" fill="none" viewBox="0 0 32 32"><path fill="currentColor" d="M11.284 17.26c.722 0 1.307-.564 1.307-1.26 0-.696-.585-1.26-1.307-1.26s-1.307.564-1.307 1.26c0 .696.585 1.26 1.307 1.26Z"/><path fill="currentColor" fill-rule="evenodd" d="M16 4C9.37 4 4 9.37 4 16s5.37 12 12 12 12-5.37 12-12S22.63 4 16 4Zm0 1.072C9.963 5.072 5.072 9.962 5.072 16c0 6.038 4.89 10.927 10.928 10.927 6.038 0 10.927-4.89 10.927-10.927S22.037 5.072 16 5.072Z" clip-rule="evenodd"/><path fill="currentColor" fill-rule="evenodd" d="M16.043 16.013a4.71 4.71 0 0 0 4.718 4.703c2.61 0 4.717-2.1 4.717-4.703 0-5.189-4.223-9.398-9.428-9.398-5.205 0-9.436 4.21-9.436 9.398a4.71 4.71 0 0 1 4.718-4.703c2.61 0 4.718 2.101 4.718 4.703h-.007Zm4.718-1.278a1.28 1.28 0 0 0-1.283 1.278c0 .703.577 1.279 1.282 1.279.705 0 1.283-.576 1.283-1.279s-.578-1.278-1.282-1.278Z" clip-rule="evenodd"/></svg>
