<svg xmlns="http://www.w3.org/2000/svg" fill="none" viewBox="0 0 21 21"><path fill="currentColor" d="M6.373 11.603c.632 0 1.144-.494 1.144-1.103 0-.61-.512-1.103-1.144-1.103-.631 0-1.144.494-1.144 1.103 0 .61.513 1.103 1.144 1.103Z"/><path fill="currentColor" fill-rule="evenodd" d="M10.5 0C4.699 0 0 4.699 0 10.5S4.699 21 10.5 21 21 16.301 21 10.5 16.301 0 10.5 0Zm0 .938A9.559 9.559 0 0 0 .938 10.5a9.559 9.559 0 0 0 9.562 9.562 9.559 9.559 0 0 0 9.562-9.562A9.559 9.559 0 0 0 10.5.938Z" clip-rule="evenodd"/><path fill="currentColor" fill-rule="evenodd" d="M10.537 10.511a4.12 4.12 0 0 0 4.128 4.116 4.116 4.116 0 0 0 4.129-4.116c0-4.54-3.695-8.223-8.25-8.223s-8.256 3.683-8.256 8.223a4.12 4.12 0 0 1 4.128-4.115 4.116 4.116 0 0 1 4.128 4.115h-.007Zm4.128-1.118a1.12 1.12 0 0 0-1.122 1.118c0 .615.506 1.12 1.123 1.12.616 0 1.122-.505 1.122-1.12 0-.614-.506-1.118-1.123-1.118Z" clip-rule="evenodd"/></svg>
