<svg xmlns="http://www.w3.org/2000/svg" fill="none" viewBox="0 0 32 32"><path fill="currentColor" d="M25.719 7.612A24.92 24.92 0 0 0 19.942 6c-.249.4-.54.937-.74 1.365a23.866 23.866 0 0 0-6.402 0c-.2-.428-.498-.965-.749-1.365a24.85 24.85 0 0 0-5.78 1.616c-3.657 4.907-4.648 9.691-4.152 14.408a24.315 24.315 0 0 0 7.085 3.224c.57-.697 1.079-1.438 1.517-2.22a15.746 15.746 0 0 1-2.39-1.032c.201-.132.397-.27.586-.412 4.607 1.914 9.613 1.914 14.165 0 .192.142.388.28.586.412-.757.405-1.559.753-2.394 1.035a15.37 15.37 0 0 0 1.518 2.219 24.26 24.26 0 0 0 7.089-3.226c.581-5.468-.993-10.208-4.162-14.412Zm-14.37 11.51c-1.383 0-2.517-1.146-2.517-2.542s1.11-2.545 2.517-2.545a2.51 2.51 0 0 1 2.517 2.545 2.523 2.523 0 0 1-2.517 2.543Zm9.302 0c-1.383 0-2.517-1.146-2.517-2.542s1.11-2.545 2.517-2.545a2.51 2.51 0 0 1 2.518 2.545c0 1.396-1.11 2.543-2.518 2.543Z"/></svg>
