<svg xmlns="http://www.w3.org/2000/svg" fill="none" viewBox="0 0 32 32"><path fill="currentColor" fill-rule="evenodd" d="M16.009 4C9.369 4 4 9.5 4 16.305c0 5.44 3.44 10.042 8.21 11.672.598.123.817-.265.817-.59 0-.285-.02-1.262-.02-2.282-3.34.732-4.036-1.468-4.036-1.468-.536-1.425-1.333-1.792-1.333-1.792-1.094-.752.079-.752.079-.752 1.212.082 1.848 1.262 1.848 1.262 1.075 1.875 2.803 1.345 3.501 1.017.098-.794.418-1.345.755-1.65-2.665-.285-5.467-1.345-5.467-6.07 0-1.345.476-2.444 1.231-3.3-.12-.305-.536-1.567.12-3.26 0 0 1.013-.325 3.302 1.263a11.289 11.289 0 0 1 6.003 0c2.286-1.59 3.301-1.263 3.301-1.263.657 1.69.239 2.955.121 3.26.774.855 1.232 1.955 1.232 3.3 0 4.728-2.803 5.766-5.487 6.07.437.388.816 1.12.816 2.283 0 1.65-.02 2.975-.02 3.382 0 .325.219.713.816.59 4.772-1.63 8.21-6.232 8.21-11.672C28.02 9.5 22.632 4 16.012 4h-.002Z" clip-rule="evenodd"/></svg>
