<svg xmlns="http://www.w3.org/2000/svg" fill="none" viewBox="0 0 32 32"><path fill="currentColor" d="M5.65 15.182c6.443-2.682 10.74-4.45 12.887-5.305 6.14-2.438 7.414-2.864 8.246-2.877.183 0 .59.04.857.244.22.175.283.41.314.57.027.166.065.539.034.832-.331 3.34-1.771 11.442-2.503 15.18-.308 1.584-.919 2.112-1.51 2.165-1.284.112-2.258-.812-3.5-1.59-1.945-1.218-3.043-1.977-4.932-3.165-2.182-1.372-.767-2.128.477-3.362.324-.323 5.98-5.235 6.088-5.68.013-.057.027-.265-.104-.374-.128-.109-.318-.072-.456-.043-.197.043-3.301 2.006-9.323 5.886-.881.578-1.679.861-2.397.845-.787-.017-2.307-.426-3.436-.775-1.381-.43-2.483-.657-2.386-1.39.048-.379.597-.768 1.644-1.167v.006Z"/></svg>
