<svg xmlns="http://www.w3.org/2000/svg" fill="none" viewBox="0 0 32 32"><path fill="currentColor" d="M29 8.368c-.957.402-1.985.672-3.064.794 1.102-.624 1.948-1.614 2.346-2.793-1.03.579-2.172.999-3.388 1.226A5.47 5.47 0 0 0 21.001 6c-3.444 0-5.975 3.041-5.197 6.199-4.432-.21-8.362-2.22-10.994-5.275-1.397 2.27-.724 5.238 1.65 6.741a5.542 5.542 0 0 1-2.415-.632c-.058 2.34 1.713 4.528 4.278 5.015a5.639 5.639 0 0 1-2.409.086c.678 2.006 2.648 3.465 4.984 3.506C8.655 23.304 5.83 24.048 3 23.732A15.725 15.725 0 0 0 11.177 26c9.904 0 15.5-7.917 15.161-15.018A10.556 10.556 0 0 0 29 8.367Z"/></svg>
