<svg width="216" height="216" viewBox="0 0 216 216" fill="none" xmlns="http://www.w3.org/2000/svg">
<rect width="216" height="216" fill="url(#paint0_linear_5_6)"/>
<path d="M87.9609 143.346L64.2169 102.221C63.625 101.196 63.3135 100.033 63.3135 98.8487C63.3135 97.6651 63.625 96.5023 64.2169 95.477L87.9609 54.3719C88.5527 53.3467 89.404 52.4953 90.4293 51.9035C91.4546 51.3116 92.6174 51 93.8014 51H141.269C142.453 51 143.616 51.3116 144.641 51.9035C145.666 52.4953 146.518 53.3467 147.11 54.3719L170.934 95.517L159.252 102.261L137.455 64.5277H97.7755L77.9254 98.889L99.7221 136.642L87.9609 143.346Z" fill="#9C6CFF"/>
<path d="M122.763 165.725H75.1958C74.0119 165.725 72.8487 165.413 71.8235 164.821C70.7983 164.23 69.947 163.378 69.3551 162.353L45.6312 121.268L57.2925 114.524L79.0894 152.277H118.749L138.579 117.896L116.802 80.1631L128.464 73.4192L152.208 114.524C152.799 115.549 153.111 116.713 153.111 117.896C153.111 119.08 152.799 120.243 152.208 121.268L128.464 162.393C127.882 163.393 127.051 164.226 126.052 164.809C125.053 165.393 123.92 165.709 122.763 165.725Z" fill="#05D2DD"/>
<defs>
<linearGradient id="paint0_linear_5_6" x1="0" y1="0" x2="206.5" y2="225" gradientUnits="userSpaceOnUse">
<stop stop-color="#FDFEFF"/>
<stop offset="1" stop-color="#C5DFFF"/>
</linearGradient>
</defs>
</svg>
