<svg width="216" height="216" viewBox="0 0 216 216" fill="none" xmlns="http://www.w3.org/2000/svg">
<rect width="216" height="216" fill="#E41B23"/>
<path d="M147.291 143.674C146.566 143.674 145.978 143.086 145.978 142.361V76.7599C145.978 76.0347 145.39 75.4468 144.665 75.4468H139.883C139.158 75.4468 138.57 76.0347 138.57 76.7599V142.361C138.57 143.086 137.982 143.674 137.257 143.674H115.073C114.348 143.674 113.76 143.086 113.76 142.361V57.1187C113.76 56.3935 114.348 55.8057 115.073 55.8057H169.475C170.2 55.8057 170.788 56.3935 170.788 57.1187V142.361C170.788 143.086 170.2 143.674 169.475 143.674H147.291Z" fill="white"/>
<path d="M102.19 55.8057C102.915 55.8057 103.503 56.3935 103.503 57.1187V142.361C103.503 143.086 102.915 143.674 102.19 143.674H80.7784C80.0889 143.674 79.5168 143.141 79.4685 142.453L78.9257 134.717C78.8915 134.231 78.4869 133.853 77.9992 133.853C77.592 133.853 77.2335 134.12 77.1044 134.506C75.768 138.503 73.9235 141.146 71.5709 142.433C71.0999 142.691 70.7674 143.165 70.7674 143.701V174.924C70.7674 175.649 70.1795 176.237 69.4543 176.237H47.2706C46.5454 176.237 45.9575 175.649 45.9575 174.924V57.1187C45.9575 56.3935 46.5454 55.8057 47.2706 55.8057H69.4543C70.1795 55.8057 70.7674 56.3935 70.7674 57.1187V103.013C70.7674 110.135 70.8248 114.901 70.9397 117.313C71.0545 119.611 71.3417 121.104 71.8011 121.793C72.2606 122.367 73.2369 122.654 74.7301 122.654C76.2233 122.654 77.1996 122.252 77.659 121.448C78.1185 120.644 78.4056 118.864 78.5205 116.107C78.6353 113.351 78.6928 107.723 78.6928 99.2229V57.1187C78.6928 56.3935 79.2806 55.8057 80.0058 55.8057H102.19Z" fill="white"/>
</svg>
