<svg width="216" height="216" viewBox="0 0 216 216" fill="none" xmlns="http://www.w3.org/2000/svg">
<rect width="216" height="216" fill="#FFE8E4"/>
<path d="M180.414 151.954L167.132 138.053L141.584 111.309C139.673 109.301 139.631 106.166 141.488 104.104L151.566 93.0076L155.526 88.6351L175.12 67.075C175.12 67.075 175.217 66.9513 175.272 66.8825L177.059 64.9025C177.554 64.3525 177.197 63.5 176.482 63.445H176.413C176.413 63.445 176.413 63.445 176.399 63.445H159.803C158.29 63.445 156.846 64.105 155.87 65.2738L145.97 76.9476L126.473 99.8964C125.469 101.079 123.998 101.753 122.444 101.753H121.344C118.429 101.753 116.064 99.3876 116.064 96.4726V51.455V49.5438C116.064 48.1413 114.923 47 113.52 47H101.833C100.43 47 99.2889 48.1413 99.2889 49.5438V96.5001C99.2889 99.4151 96.9239 101.78 94.0088 101.78H92.9088C91.3551 101.78 89.8838 101.093 88.8801 99.9239L74.5251 83.0251L59.4825 65.3013C58.5063 64.1463 57.0625 63.4725 55.55 63.4725H38.9537C38.9537 63.4725 38.9537 63.4725 38.94 63.4725H38.8575C38.1562 63.555 37.8125 64.4075 38.2937 64.9438L39.5175 66.2913C39.5175 66.2913 39.6137 66.4288 39.6687 66.4975L73.8651 104.131C75.7351 106.18 75.6938 109.329 73.7688 111.336L47.7125 138.603L34.925 151.954C34.4025 152.49 34.7875 153.398 35.5437 153.398H35.585H52.4975C52.69 153.398 52.8825 153.398 53.075 153.37C53.79 153.301 54.4775 153.068 55.0963 152.724C55.5775 152.449 56.0313 152.091 56.4163 151.679L88.5088 116.259C89.5126 115.159 90.9288 114.526 92.4276 114.526H94.0088C96.9239 114.526 99.2889 116.891 99.2889 119.806V167.34C99.2889 168.743 100.43 169.884 101.833 169.884H113.52C114.923 169.884 116.064 168.743 116.064 167.34V159.406V119.806C116.064 116.891 118.429 114.526 121.344 114.526H122.925C124.41 114.526 125.84 115.159 126.844 116.259L158.936 151.679C159.321 152.105 159.761 152.449 160.256 152.738C160.875 153.095 161.563 153.315 162.278 153.384C162.47 153.411 162.663 153.411 162.855 153.411H179.768H179.809C180.552 153.411 180.937 152.518 180.428 151.968L180.414 151.954Z" fill="url(#paint0_linear_303_32)"/>
<path d="M99.2614 96.9539C99.0414 99.6627 96.7726 101.794 94.0088 101.794H92.9088C91.3551 101.794 89.8838 101.106 88.8801 99.9377L74.5251 83.0389L59.4825 65.3151C58.5063 64.1601 57.0625 63.4863 55.55 63.4863H38.9537C38.9537 63.4863 38.9537 63.4863 38.94 63.4863H38.8575C38.1562 63.5688 37.8125 64.4213 38.2937 64.9576L39.5175 66.3051C39.5175 66.3051 39.6137 66.4426 39.6687 66.5113L73.8651 104.145C75.7351 106.194 75.6938 109.343 73.7688 111.35L47.7125 138.616L34.925 151.954C34.4025 152.49 34.7875 153.398 35.5437 153.398H35.585H52.4975C52.69 153.398 52.8825 153.398 53.075 153.37C53.79 153.302 54.4775 153.068 55.0963 152.724C55.5775 152.449 56.0313 152.092 56.4163 151.679L88.5088 116.259C89.5126 115.159 90.9288 114.526 92.4276 114.526H94.0088C96.7726 114.526 99.0414 116.658 99.2614 119.366V96.9814V96.9539Z" fill="#FFB7A6"/>
<defs>
<linearGradient id="paint0_linear_303_32" x1="107.676" y1="46.8212" x2="107.676" y2="170.008" gradientUnits="userSpaceOnUse">
<stop stop-color="#FF7950"/>
<stop offset="1" stop-color="#FF3000"/>
</linearGradient>
</defs>
</svg>
